<?xml version="1.0" encoding="iso-8859-1"?>
<!-- Generator: Adobe Illustrator 19.0.0, SVG Export Plug-In . SVG Version: 6.00 Build 0)  -->
<svg version="1.1" id="Layer_1" xmlns="http://www.w3.org/2000/svg" xmlns:xlink="http://www.w3.org/1999/xlink" x="0px" y="0px"
	 viewBox="0 0 512 512" style="enable-background:new 0 0 512 512;" xml:space="preserve">
<circle style="fill:#1FCFC1;" cx="256" cy="256" r="245.801"/>
<g>
	<rect x="168.287" y="120.371" style="fill:#F2F2F2;" width="62.215" height="271.258"/>
	<rect x="281.498" y="120.371" style="fill:#F2F2F2;" width="62.215" height="271.258"/>
</g>
<g>
	<path style="fill:#4D4D4D;" d="M256,512c-68.38,0-132.667-26.628-181.02-74.981C26.628,388.667,0,324.381,0,256
		S26.628,123.333,74.98,74.981C123.333,26.628,187.62,0,256,0s132.667,26.628,181.02,74.981C485.372,123.333,512,187.619,512,256
		s-26.628,132.667-74.98,181.019C388.667,485.372,324.38,512,256,512z M256,20.398C126.089,20.398,20.398,126.089,20.398,256
		S126.089,491.602,256,491.602S491.602,385.911,491.602,256S385.911,20.398,256,20.398z"/>
	<path style="fill:#4D4D4D;" d="M230.502,401.828h-62.215c-5.633,0-10.199-4.567-10.199-10.199V120.371
		c0-5.632,4.566-10.199,10.199-10.199h62.215c5.633,0,10.199,4.567,10.199,10.199v271.258
		C240.701,397.262,236.135,401.828,230.502,401.828z M178.486,381.43h41.817V130.57h-41.817V381.43z"/>
	<path style="fill:#4D4D4D;" d="M343.713,401.828h-62.215c-5.633,0-10.199-4.567-10.199-10.199V120.371
		c0-5.632,4.566-10.199,10.199-10.199h62.215c5.633,0,10.199,4.567,10.199,10.199v271.258
		C353.912,397.262,349.346,401.828,343.713,401.828z M291.697,381.43h41.817V130.57h-41.817V381.43z"/>
	<path style="fill:#4D4D4D;" d="M256,473.243c-5.633,0-10.199-4.567-10.199-10.199c0-5.632,4.566-10.199,10.199-10.199
		c52.815,0,102.405-20.633,139.634-58.1c3.971-3.996,10.428-4.016,14.424-0.046c3.995,3.972,4.016,10.429,0.045,14.425
		C369.016,450.471,314.287,473.243,256,473.243z"/>
	<path style="fill:#4D4D4D;" d="M430.397,377.824c-1.885,0-3.792-0.522-5.496-1.615c-4.742-3.04-6.12-9.35-3.079-14.091
		c1.523-2.374,3.008-4.803,4.413-7.217c2.833-4.87,9.076-6.519,13.945-3.684c4.868,2.833,6.517,9.077,3.684,13.945
		c-1.552,2.667-3.191,5.347-4.872,7.969C437.044,376.167,433.756,377.824,430.397,377.824z"/>
</g>
<g>
</g>
<g>
</g>
<g>
</g>
<g>
</g>
<g>
</g>
<g>
</g>
<g>
</g>
<g>
</g>
<g>
</g>
<g>
</g>
<g>
</g>
<g>
</g>
<g>
</g>
<g>
</g>
<g>
</g>
</svg>
